<?xml version="1.0" encoding="UTF-8"?>
<svg id="Layer_2" data-name="Layer 2" xmlns="http://www.w3.org/2000/svg" viewBox="0 0 374.22 114.51">
  <defs>
    <style>
      .cls-1 {
        fill: #fff;
      }
    </style>
  </defs>
  <g id="Layer_1-2" data-name="Layer 1">
    <path class="cls-1" d="m112.2,114.5c-.08,0-.15,0-.23-.02-.6-.13-.98-.72-.85-1.32L135.03.88c.13-.6.71-.99,1.32-.85.6.13.98.72.85,1.32l-23.92,112.28c-.11.52-.57.88-1.08.88h0Z"/>
    <g>
      <g>
        <path class="cls-1" d="m163.14,28.75c-2.7-.03-3.38-.03-6.19.08l-.11-.14c0-2.56.03-5.08.06-7.61.03-1.62.06-3.24.06-4.86,0-2.5-.06-4.34-.17-7.38l.14-.14c2.78.03,3.38.03,6.16-.08l.11.14c-.08,2.84-.14,4.54-.14,7.81,0,4,.08,8.07.2,12.04l-.11.14h0Z"/>
        <path class="cls-1" d="m173.59,20.45v3.92c2.22,0,4.29-.06,7.21-.17l.17.17-.28,4.2-.26.17c-3.89,0-4.54-.03-5.4-.03-3.12,0-4.74.06-7.44.11l-.14-.2c.09-3.27.11-5.03.11-8.89,0-6.82-.06-7.98-.2-10.88l.17-.17h12.78l.14.11-.2,3.92-.17.14h-6.56v3.61l6.22-.11.17.2-.23,3.72-.2.17h-5.91.02Z"/>
        <path class="cls-1" d="m190.14,20.45v3.92c2.22,0,4.29-.06,7.21-.17l.17.17-.28,4.2-.26.17c-3.89,0-4.54-.03-5.4-.03-3.12,0-4.74.06-7.44.11l-.14-.2c.09-3.27.11-5.03.11-8.89,0-6.82-.06-7.98-.2-10.88l.17-.17h12.78l.14.11-.2,3.92-.17.14h-6.56v3.61l6.22-.11.17.2-.23,3.72-.2.17h-5.91.02Z"/>
        <path class="cls-1" d="m206.69,20.45v3.92c2.22,0,4.29-.06,7.21-.17l.17.17-.28,4.2-.26.17c-3.89,0-4.54-.03-5.4-.03-3.12,0-4.74.06-7.44.11l-.14-.2c.09-3.27.11-5.03.11-8.89,0-6.82-.06-7.98-.2-10.88l.17-.17h12.78l.14.11-.2,3.92-.17.14h-6.56v3.61l6.22-.11.17.2-.23,3.72-.2.17h-5.91.02Z"/>
      </g>
      <g>
        <path class="cls-1" d="m164.07,45.01c-1.26-.64-2.53-.96-3.8-.96-1.54,0-2.94.38-4.22,1.13s-2.28,1.78-3.01,3.08-1.09,2.75-1.09,4.33.36,3.04,1.09,4.35c.73,1.31,1.73,2.36,3.01,3.12,1.28.77,2.68,1.15,4.22,1.15,1.22,0,2.46-.29,3.73-.88s2.39-1.37,3.38-2.36l3.63,3.94c-1.46,1.51-3.17,2.71-5.13,3.59s-3.94,1.33-5.91,1.33c-2.68,0-5.11-.62-7.3-1.86-2.19-1.23-3.9-2.93-5.15-5.09s-1.87-4.57-1.87-7.22.64-5.01,1.91-7.14,3.03-3.81,5.25-5.04,4.69-1.83,7.4-1.83c1.98,0,3.93.41,5.86,1.23,1.93.82,3.56,1.93,4.92,3.34l-3.59,4.41c-.94-1.12-2.04-2-3.3-2.63h-.03Z"/>
        <path class="cls-1" d="m194.73,40.5c2.24,1.22,4,2.91,5.29,5.06s1.93,4.53,1.93,7.16-.64,5.02-1.93,7.18-3.05,3.86-5.29,5.09c-2.24,1.24-4.72,1.86-7.45,1.86s-5.22-.62-7.46-1.86c-2.24-1.23-4-2.93-5.29-5.07s-1.93-4.55-1.93-7.2.64-5.02,1.93-7.16c1.29-2.15,3.04-3.83,5.27-5.06,2.23-1.22,4.72-1.83,7.48-1.83s5.22.61,7.45,1.83Zm-11.59,4.7c-1.3.77-2.33,1.81-3.08,3.14s-1.13,2.79-1.13,4.37.38,3.08,1.15,4.41c.77,1.33,1.8,2.38,3.08,3.16s2.69,1.17,4.2,1.17,2.89-.38,4.16-1.15,2.26-1.82,3.01-3.16c.74-1.34,1.11-2.82,1.11-4.43s-.37-3.04-1.11-4.37c-.74-1.33-1.74-2.37-3.01-3.14s-2.65-1.15-4.16-1.15-2.92.38-4.22,1.15h0Z"/>
        <path class="cls-1" d="m206.4,39.1h6.87l8.51,16.78,8.43-16.78h6.83v27.32h-5.54v-18.46l-7.77,15.69h-3.98l-7.81-15.69v18.46h-5.54v-27.32h0Z"/>
        <path class="cls-1" d="m263.16,41.58c1.9,1.65,2.85,3.99,2.85,7.01,0,3.18-.96,5.64-2.87,7.4-1.91,1.76-4.6,2.63-8.06,2.63h-5.43v7.81h-6.17v-27.32h11.59c3.49,0,6.18.83,8.08,2.48h0Zm-4.39,10.69c.92-.79,1.39-1.96,1.39-3.49s-.46-2.65-1.39-3.42c-.92-.77-2.26-1.15-4-1.15h-5.11v9.25h5.11c1.74,0,3.08-.4,4-1.19Z"/>
        <path class="cls-1" d="m277.7,59.77c1.11,1.13,2.58,1.7,4.43,1.7s3.23-.56,4.29-1.68c1.07-1.12,1.6-2.67,1.6-4.64v-16.04h6.17v16.04c0,2.39-.49,4.47-1.46,6.23-.98,1.76-2.38,3.11-4.2,4.06-1.82.95-3.97,1.43-6.44,1.43s-4.63-.47-6.48-1.43c-1.85-.95-3.27-2.3-4.25-4.06-.99-1.76-1.48-3.83-1.48-6.23v-16.04h6.17v16.04c0,1.95.55,3.49,1.66,4.63h-.01Z"/>
        <path class="cls-1" d="m297.43,39.1h22.83v5.23h-8.35v22.09h-6.17v-22.09h-8.31v-5.23h0Z"/>
        <path class="cls-1" d="m323.97,39.1h20.81v5.11h-14.64v5.93h13.15v5.11h-13.15v6.05h15.07v5.11h-21.24v-27.32h0Z"/>
        <path class="cls-1" d="m367.22,66.42l-4.33-7.81h-6.28v7.81h-6.17v-27.32h11.87c3.57,0,6.32.83,8.28,2.48,1.95,1.65,2.93,3.99,2.93,7.01,0,2.11-.44,3.91-1.31,5.41s-2.14,2.63-3.8,3.42l5.81,9.02h-6.99v-.02Zm-10.62-12.96h5.7c1.72,0,3.04-.4,3.96-1.19.92-.79,1.39-1.96,1.39-3.49s-.46-2.65-1.39-3.42c-.93-.77-2.25-1.15-3.96-1.15h-5.7v9.25Z"/>
        <path class="cls-1" d="m151.58,83.69c-1.58-.51-2.92-.76-4.04-.76s-1.91.2-2.54.59-.94.96-.94,1.72c0,.96.45,1.7,1.35,2.21.9.51,2.28,1.03,4.16,1.58,1.87.55,3.42,1.09,4.63,1.64s2.24,1.37,3.1,2.46,1.29,2.54,1.29,4.33-.46,3.25-1.39,4.51c-.92,1.26-2.19,2.22-3.81,2.87-1.61.65-3.45.98-5.5.98-2.21,0-4.38-.39-6.52-1.17-2.13-.78-3.98-1.85-5.54-3.2l2.46-5.04c1.38,1.25,2.97,2.25,4.76,3.01,1.8.76,3.44,1.13,4.92,1.13,1.27,0,2.27-.23,2.99-.7.72-.47,1.07-1.15,1.07-2.03,0-.7-.24-1.28-.72-1.74s-1.09-.83-1.83-1.11-1.76-.61-3.06-.98c-1.87-.52-3.4-1.04-4.59-1.56-1.18-.52-2.2-1.31-3.06-2.38s-1.29-2.48-1.29-4.25c0-1.64.44-3.08,1.33-4.31.88-1.24,2.12-2.18,3.71-2.85,1.59-.66,3.44-1,5.54-1,1.87,0,3.72.27,5.54.82,1.82.55,3.44,1.28,4.84,2.19l-2.38,5.11c-1.41-.86-2.9-1.54-4.47-2.05v-.02Z"/>
        <path class="cls-1" d="m183.49,79.54c2.24,1.22,4,2.91,5.29,5.06,1.29,2.15,1.93,4.53,1.93,7.16s-.64,5.02-1.93,7.18-3.05,3.86-5.29,5.09c-2.24,1.24-4.72,1.86-7.45,1.86s-5.22-.62-7.46-1.86-4-2.93-5.29-5.07-1.93-4.55-1.93-7.2.64-5.01,1.93-7.16c1.29-2.15,3.04-3.83,5.27-5.06,2.23-1.22,4.72-1.83,7.48-1.83s5.22.61,7.45,1.83Zm-11.59,4.7c-1.3.77-2.33,1.81-3.08,3.14s-1.13,2.79-1.13,4.37.38,3.08,1.15,4.41c.77,1.33,1.8,2.38,3.08,3.16,1.29.78,2.69,1.17,4.2,1.17s2.89-.38,4.16-1.15,2.26-1.82,3.01-3.16c.74-1.34,1.11-2.82,1.11-4.43s-.37-3.04-1.11-4.37-1.74-2.37-3.01-3.14-2.65-1.15-4.16-1.15-2.92.38-4.22,1.15h0Z"/>
        <path class="cls-1" d="m210.95,84.05c-1.26-.64-2.53-.96-3.8-.96-1.54,0-2.94.38-4.22,1.13s-2.28,1.78-3.01,3.08-1.09,2.75-1.09,4.33.36,3.04,1.09,4.35,1.73,2.35,3.01,3.12c1.28.77,2.68,1.15,4.22,1.15,1.22,0,2.47-.29,3.73-.88s2.39-1.37,3.38-2.36l3.63,3.94c-1.46,1.51-3.17,2.71-5.13,3.59s-3.94,1.33-5.91,1.33c-2.68,0-5.11-.62-7.3-1.86s-3.9-2.93-5.15-5.09c-1.25-2.16-1.87-4.57-1.87-7.22s.64-5.01,1.91-7.14c1.28-2.13,3.03-3.81,5.25-5.04s4.69-1.83,7.4-1.83c1.98,0,3.93.41,5.85,1.23s3.57,1.93,4.92,3.34l-3.59,4.41c-.94-1.12-2.04-2-3.3-2.64l-.02.02Z"/>
        <path class="cls-1" d="m221.94,78.13h6.17v27.32h-6.17v-27.32Z"/>
        <path class="cls-1" d="m234.55,78.13h20.8v5.11h-14.64v5.93h13.15v5.11h-13.15v6.05h15.07v5.11h-21.23v-27.32h0Z"/>
        <path class="cls-1" d="m258.32,78.13h22.83v5.23h-8.35v22.09h-6.17v-22.09h-8.32v-5.23h.01Z"/>
        <path class="cls-1" d="m307.97,78.13l-9.95,18.5v8.82h-6.17v-8.67l-10.11-18.66h6.21l6.99,12.26,6.83-12.26h6.21,0Z"/>
      </g>
    </g>
    <g>
      <path class="cls-1" d="m53.56,6.52C23.98,6.52,0,28.45,0,55.51s23.98,48.99,53.56,48.99,53.56-21.93,53.56-48.99S83.15,6.52,53.56,6.52Zm8.18,72.54c0,6.42.46,6.65,4.94,6.94l4.62.27.2.11c.99.54,1.31,1.8,1.18,2.83-.14,1.1-.77,1.91-1.64,2.12l-.14.03h-.15c-3.63-.17-9.96-.26-16.92-.26-7.34,0-13.66.09-17.35.26h-.15l-.14-.03c-.87-.21-1.49-1.02-1.64-2.12-.13-1.02.18-2.29,1.18-2.83l.2-.11,4.63-.27c4.48-.3,4.93-.52,4.93-6.95-17.64-1.98-28.63-10.53-28.63-22.88s9.48-20.42,26.36-22.66c.06,1.61.11,3.77.14,6.25-1.03.26-2.01.56-2.89.9l-.44.16c-3.52,1.32-5.91,3.78-6.97,7.14l-.04.11c-.61,1.47-.95,4.25-.95,7.82v.3c0,3.57.34,6.35.95,7.82l.04.13c.81,2.59,2.45,4.64,4.76,6.05,3.32,2.21,9.66,3.35,15.96,3.35,6.89,0,13.83-1.37,16.81-4.01,1.81-1.37,3.11-3.19,3.81-5.41l.04-.12c.61-1.47.95-4.24.95-7.82v-.3c0-3.57-.34-6.35-.95-7.82l-.04-.11c-1.06-3.36-3.45-5.82-6.93-7.12l-.45-.17c-1.54-.61-3.33-1.09-5.28-1.44v31.35c-2.26.42-4.94.68-7.95.68-3.16,0-5.95-.29-8.28-.75v-7.26c.14-6.76.29-17.49.13-25.07h0c0-.18-.13-5.32-.13-5.49-.03-4.97-.5-5.49-4.23-5.9l-5.25-.6c-.8-.36-1.33-1.26-1.4-2.37-.07-1.1.34-2.05,1.07-2.49l.19-.12.22-.03c3.84-.45,8.68-1.31,13.64-2.41,2.61-.62,5.04-1.41,6.81-1.99,1.76-.58,2.5-.81,2.97-.81.98,0,2.13.52,2.49,1.68l.06.2-.02.21c-.2,1.83-.32,5.65-.32,10.2v4.93c18.39,1.78,28.75,9.93,28.75,22.95s-11.04,20.94-28.75,22.9v.03Z"/>
      <path class="cls-1" d="m84.66,101.48h5.3v1.01h-2.08v5.85h-1.16v-5.85h-2.06v-1.01Zm6.31,0h1.36l2.26,4.64,2.24-4.64h1.37v6.86h-1.06v-5.23l-2.17,4.51h-.75l-2.17-4.51v5.23h-1.06v-6.86h-.02Z"/>
    </g>
  </g>
</svg>